# xmcd
#
# Track frame offsets:
#	150
#	13520
#	23378
#	31589
#	43580
#	55107
#	65756
#	75920
#	86724
#	103237
#	116624
#	127840
#	137963
#	149738
#	159830
#	170938
#	183582
#
# Disc length: 2616 seconds
#
# Revision: 1
# Processed by: cddbd v1.5.1PL2 Copyright (c) Steve Scherf et al.
# Submitted via: audiograbber 1.83.01
#
DISCID=df0a3611
DTITLE=divers - country volume 2
DYEAR=1900
DGENRE=Country
TTITLE0=kenny rogers - ruby, dont take your love to town
TTITLE1=merle travis - so round, so firm, so fully paked
TTITLE2=don gibson - blue blue day
TTITLE3=stonewall jackson - waterloo
TTITLE4=patsy cline - walkin after midnight
TTITLE5=dolly parton - why why why
TTITLE6=merle travis - divorce me COD
TTITLE7=lynn anderson - heaven s just a sin away
TTITLE8=charlie rich - big boss man
TTITLE9=billy jo spears - fever
TTITLE10=freddy fender - matilda
TTITLE11=webb pierce - missing you
TTITLE12=warner mack - talkin to the wall
TTITLE13=boxcar willie - king of the road
TTITLE14=buck owens - my heart skips a beat
TTITLE15=gene autry - back in the saddle again
TTITLE16=buck owens - street of bakersfield
EXTD=
EXTT0=
EXTT1=
EXTT2=
EXTT3=
EXTT4=
EXTT5=
EXTT6=
EXTT7=
EXTT8=
EXTT9=
EXTT10=
EXTT11=
EXTT12=
EXTT13=
EXTT14=
EXTT15=
EXTT16=
PLAYORDER=
